<?xml version="1.0" encoding="utf-8"?>
<!-- Generator: Adobe Illustrator 24.3.0, SVG Export Plug-In . SVG Version: 6.00 Build 0)  -->
<svg version="1.1" id="Layer_1" xmlns="http://www.w3.org/2000/svg" xmlns:xlink="http://www.w3.org/1999/xlink" x="0px" y="0px"
	 viewBox="0 0 800 800" style="enable-background:new 0 0 800 800;" xml:space="preserve">
<path d="M400,66.7C216.3,66.7,66.7,216.3,66.7,400S216.3,733.3,400,733.3S733.3,583.7,733.3,400S583.7,66.7,400,66.7z M533.3,425
	H425v108.3c0,13.7-11.3,25-25,25c-13.7,0-25-11.3-25-25V425H266.7c-13.7,0-25-11.3-25-25c0-13.7,11.3-25,25-25H375V266.7
	c0-13.7,11.3-25,25-25c13.7,0,25,11.3,25,25V375h108.3c13.7,0,25,11.3,25,25C558.3,413.7,547,425,533.3,425z"/>
</svg>
