<?xml version="1.0" encoding="utf-8"?>
<!-- Generator: Adobe Illustrator 24.3.0, SVG Export Plug-In . SVG Version: 6.00 Build 0)  -->
<svg version="1.1" id="Layer_1" xmlns="http://www.w3.org/2000/svg" xmlns:xlink="http://www.w3.org/1999/xlink" x="0px" y="0px"
	 viewBox="0 0 800 800" style="enable-background:new 0 0 800 800;" xml:space="preserve">
<g>
	<path d="M400,221.8c54.69,42.93,86.6,108.61,86.53,178.13c0.04,69.5-31.87,135.16-86.53,178.07
		c-54.68-42.92-86.59-108.59-86.53-178.1C313.41,330.39,345.32,264.72,400,221.8z M371,202.4c-57.82,49.35-91.08,121.58-91,197.6
		c-0.08,75.98,33.16,148.18,90.93,197.53c-109.13,61.26-247.26,22.46-308.52-86.67S39.96,263.6,149.09,202.34
		c68.93-38.69,153.04-38.67,221.95,0.06L371,202.4z M429.07,597.53C486.84,548.18,520.08,475.98,520,400
		c0.08-76.02-33.18-148.25-91-197.6c109.1-61.32,247.25-22.58,308.56,86.52s22.58,247.25-86.52,308.56
		c-68.91,38.73-153.02,38.75-221.95,0.06L429.07,597.53z"/>
</g>
</svg>
