<?xml version="1.0" encoding="utf-8"?>
<!-- Generator: Adobe Illustrator 24.3.0, SVG Export Plug-In . SVG Version: 6.00 Build 0)  -->
<svg version="1.1" id="mastercard" xmlns="http://www.w3.org/2000/svg" xmlns:xlink="http://www.w3.org/1999/xlink" x="0px" y="0px"
	 viewBox="0 0 24 15" style="enable-background:new 0 0 24 15;" xml:space="preserve">
<style type="text/css">
	.st0{fill:#FF5F00;}
	.st1{fill:#EB001B;}
	.st2{fill:#F79E1B;}
</style>
<path class="st0" d="M15.2,13.3H8.8V1.6h6.5C15.2,1.6,15.2,13.3,15.2,13.3z"/>
<path class="st1" d="M9.2,7.5c0-2.3,1-4.4,2.8-5.8c-3.2-2.5-7.9-2-10.4,1.2C0.6,4.2,0,5.8,0,7.5c0,4.1,3.3,7.4,7.4,7.4
	c1.7,0,3.3-0.6,4.6-1.6C10.2,11.9,9.2,9.7,9.2,7.5z"/>
<path class="st2" d="M24,7.5c0,4.1-3.3,7.4-7.4,7.4c-1.7,0-3.3-0.6-4.6-1.6c1.7-1.4,2.8-3.5,2.8-5.8S13.7,3,12,1.6
	c3.2-2.5,7.9-2,10.4,1.2C23.4,4.2,24,5.8,24,7.5z"/>
</svg>
