<svg width="31" height="31" viewBox="0 0 31 31" fill="none" xmlns="http://www.w3.org/2000/svg">
<circle cx="15.5" cy="15.5" r="15.5" fill="#FF5151"/>
<path d="M15.5007 9.99814C16.9697 9.99814 18.3511 10.5703 19.3902 11.6096C20.4295 12.6486 21.0017 14.0303 21.0017 15.4999C21.0017 16.9694 20.4295 18.3511 19.3902 19.3903C18.3512 20.4294 16.9695 21.0016 15.5 21.0016C14.0304 21.0016 12.6487 20.4294 11.6096 19.3901C10.5704 18.3511 9.99823 16.9696 9.99823 15.4999C9.99823 14.0302 10.5704 12.6486 11.6097 11.6095C12.6487 10.5705 14.0304 9.99814 15.5006 9.99799L15.5007 9.99814ZM15.5 7C13.325 7.00015 11.1492 7.83004 9.4896 9.48951C6.17006 12.809 6.17021 18.1909 9.4896 21.5103C11.1494 23.17 13.3247 23.9998 15.5 23.9998C17.6753 23.9998 19.8504 23.17 21.5103 21.5103C24.8299 18.1907 24.8299 12.809 21.5103 9.48951C19.8504 7.82959 17.6756 6.9997 15.5 7Z" fill="#8C0000"/>
<path d="M11.4573 9.23213L9.23145 11.458L19.4845 21.7111L21.7104 19.4852L11.4573 9.23213Z" fill="#8C0000"/>
</svg>
