<svg width="31" height="31" viewBox="0 0 31 31" fill="none" xmlns="http://www.w3.org/2000/svg">
<circle cx="15.5" cy="15.5" r="15.5" fill="#76FFCE"/>
<path fill-rule="evenodd" clip-rule="evenodd" d="M19.3701 11.2663C19.7251 11.6213 19.7251 12.1969 19.3701 12.5519L11.8311 20.0909C11.1211 20.801 9.96985 20.8009 9.25982 20.0909L6.26626 17.0974C5.91125 16.7424 5.91125 16.1667 6.26626 15.8117C6.62129 15.4567 7.19689 15.4567 7.55192 15.8117L10.5455 18.8053L18.0845 11.2663C18.4395 10.9112 19.0151 10.9112 19.3701 11.2663ZM23.9156 11.2663C24.2706 11.6213 24.2706 12.1969 23.9156 12.5519L15.7337 20.7337C15.3787 21.0887 14.8031 21.0887 14.4481 20.7337C14.0931 20.3787 14.0931 19.8031 14.4481 19.4481L22.6299 11.2663C22.9849 10.9112 23.5606 10.9112 23.9156 11.2663Z" fill="black"/>
</svg>
