<?xml version="1.0" encoding="utf-8"?>
<!-- Generator: Adobe Illustrator 24.3.0, SVG Export Plug-In . SVG Version: 6.00 Build 0)  -->
<svg version="1.1" id="Layer_1" xmlns="http://www.w3.org/2000/svg" xmlns:xlink="http://www.w3.org/1999/xlink" x="0px" y="0px"
	 viewBox="0 0 800 246" style="enable-background:new 0 0 800 246;" xml:space="preserve">
<path d="M396.4,6.2l-50.1,234.2h-60.6L335.8,6.2L396.4,6.2z M651.3,157.4l31.9-87.9l18.4,87.9H651.3z M718.8,240.4h56.1L726,6.2
	h-51.7c-0.1,0-0.2,0-0.2,0c-11.5,0-21.3,7-25.5,17l-0.1,0.2l-90.9,217h63.6l12.7-35h77.7L718.8,240.4z M560.7,164
	c0.2-61.8-85.5-65.2-84.9-92.8c0.2-8.4,8.2-17.4,25.7-19.6c3.2-0.3,7-0.5,10.8-0.5c17.8,0,34.6,4,49.6,11.3l-0.7-0.3l10.6-49.7
	C555.1,5.8,535.6,2,515.2,1.9h0c-59.9,0-102,31.9-102.4,77.4c-0.4,33.7,30.1,52.5,53.1,63.7c23.6,11.5,31.5,18.8,31.4,29.1
	c-0.2,15.7-18.8,22.7-36.3,22.9c-0.8,0-1.8,0-2.7,0c-21.8,0-42.3-5.5-60.2-15.2l0.7,0.3l-11,51.3c19.6,7.9,42.4,12.4,66.3,12.4
	c0.4,0,0.8,0,1.1,0h-0.1C518.8,244,560.5,212.5,560.7,164L560.7,164z M309.8,6.2l-98.1,234.2h-64.1L99.3,53.5
	C98.3,44.4,92.8,36.8,85,33l-0.2-0.1c-17.2-8.5-37.2-15.3-58.1-19.7L25.1,13l1.4-6.8h103.1h0c14.1,0,25.7,10.3,27.9,23.7l0,0.1
	l25.5,135.5L246.1,6.2L309.8,6.2z"/>
</svg>
