<svg width="61" height="68" viewBox="0 0 61 68" fill="none" xmlns="http://www.w3.org/2000/svg">
<path d="M4.91944 0C7.12118 0 7.54663 0.7225 8.11036 2.125C9.06764 4.51562 18.4915 25.6594 18.4915 25.6594C21.7781 25.2238 24.5968 24.1081 27.1921 22.2381C30.3085 19.9963 32.7017 16.9681 35.2332 13.77C37.8391 10.4656 40.5408 7.055 44.1784 4.44125C48.3373 1.45562 53.1555 0 58.8673 0C59.5906 0 60.2607 0.361251 60.6542 0.966876C61.0478 1.5725 61.1116 2.32688 60.8138 2.98563L32.4465 66.7356C32.1061 67.5006 31.3403 68 30.5 68C29.6597 68 28.8939 67.5006 28.5535 66.7356L0.186238 2.98563C-0.111581 2.32688 -0.0477629 1.5725 0.345784 0.966876C0.739331 0.361251 1.40942 0 2.1327 0H4.91944Z" fill="white"/>
</svg>
