<svg width="258" height="86" viewBox="0 0 258 86" fill="none" xmlns="http://www.w3.org/2000/svg">
<path d="M18.1053 84.0651C17.4586 84.0651 16.812 84.0651 16.1654 84.0651C14.8722 84.0651 13.3634 83.8501 12.0702 83.6351C10.7769 83.4201 9.69924 82.9901 8.40601 82.5601C7.32831 81.9151 6.25062 81.2701 5.38846 80.4101C4.52631 79.5501 3.66415 78.4751 3.23308 77.4001C2.58646 76.3251 2.37092 75.0351 2.15538 73.7451C1.93984 72.4551 1.7243 71.1651 1.7243 69.6601C1.7243 69.2301 1.7243 67.7251 1.7243 67.7251V18.0601C1.7243 18.0601 1.7243 16.5551 1.7243 16.1251C1.7243 14.8351 1.93984 13.3301 2.15538 12.0401C2.37092 10.9651 2.802 9.67506 3.44862 8.60006C4.09523 7.52506 4.74185 6.45006 5.604 5.59006C6.46616 4.73006 7.54385 4.08506 8.62155 3.44006C9.69924 2.79506 10.9925 2.58006 12.2857 2.36506C13.5789 2.15006 14.8722 1.93506 16.3809 1.93506H18.3208H239.895H241.835C243.128 1.93506 244.421 2.15006 245.93 2.36506C247.223 2.58006 248.301 3.01006 249.594 3.44006C251.749 4.51506 253.689 6.45006 254.767 8.60006C255.414 9.67506 255.629 10.9651 255.845 12.0401C256.06 13.3301 256.276 14.8351 256.276 16.1251C256.276 16.7701 256.276 17.4151 256.276 18.0601C256.276 18.9201 256.276 19.5651 256.276 20.4251V65.3601C256.276 66.2201 256.276 66.8651 256.276 67.7251C256.276 68.3701 256.276 69.0151 256.276 69.6601C256.276 70.9501 256.06 72.2401 255.845 73.7451C255.629 75.0351 255.198 76.1101 254.767 77.4001C254.12 78.4751 253.474 79.5501 252.612 80.4101C251.749 81.2701 250.672 82.1301 249.594 82.5601C248.516 83.2051 247.223 83.6351 245.93 83.6351C244.637 83.8501 243.343 84.0651 241.835 84.0651C241.188 84.0651 240.541 84.0651 239.895 84.0651H237.524H18.1053Z" fill="white"/>
<path d="M53.8847 42.7851C53.8847 38.9151 55.8246 35.4751 59.2732 33.5401C57.1178 30.5301 53.8847 28.8101 50.2205 28.8101C46.5564 28.3801 42.8922 30.9601 40.9524 30.9601C39.0125 30.9601 35.995 28.8101 32.7619 28.8101C28.6667 29.0251 24.787 31.1751 22.6316 34.8301C18.3208 42.3551 21.5539 53.3201 25.6491 59.3401C27.8045 62.3501 30.1754 65.5751 33.4085 65.5751C36.4261 65.3601 37.7193 63.6401 41.3835 63.6401C45.0476 63.6401 46.1253 65.5751 49.3584 65.5751C52.5915 65.5751 54.7469 62.5651 56.9022 59.5551C58.411 57.4051 59.4887 55.0401 60.3509 52.6751C56.4712 50.9551 53.8847 47.0851 53.8847 42.7851Z" fill="black"/>
<path d="M47.8496 24.7251C49.5739 22.5751 50.6516 19.7801 50.4361 16.9851C47.4185 17.2001 44.8321 18.4901 43.1078 20.6401C41.3835 22.7901 40.3058 25.3701 40.5213 28.1651C43.3233 28.1651 45.9098 26.8751 47.8496 24.7251Z" fill="black"/>
<path d="M91.1729 58.265H81.0426L78.6717 65.575H74.3609L84.0601 38.915H88.3709L98.0702 65.575H93.7594L91.1729 58.265ZM82.1203 55.04H90.3108L86.2155 43.215H86L82.1203 55.04Z" fill="black"/>
<path d="M118.977 55.9001C118.977 61.9201 115.744 65.7901 110.787 65.7901C108.2 66.0051 105.83 64.5001 104.752 62.3501V72.0251H100.657V46.2251H104.536V49.4501C105.83 47.3001 108.2 46.0101 110.787 46.0101C115.529 45.7951 118.977 49.8801 118.977 55.9001ZM114.667 55.9001C114.667 52.0301 112.727 49.4501 109.494 49.4501C106.476 49.4501 104.321 52.0301 104.321 55.9001C104.321 59.7701 106.476 62.3501 109.494 62.3501C112.727 62.3501 114.667 59.7701 114.667 55.9001Z" fill="black"/>
<path d="M140.316 55.9001C140.316 61.9201 137.083 65.7901 132.125 65.7901C129.539 66.0051 127.168 64.5001 126.09 62.3501V72.0251H121.995V46.2251H125.875V49.4501C127.168 47.3001 129.539 46.0101 132.125 46.0101C137.083 45.7951 140.316 49.8801 140.316 55.9001ZM136.221 55.9001C136.221 52.0301 134.281 49.4501 131.048 49.4501C128.03 49.4501 125.875 52.0301 125.875 55.9001C125.875 59.7701 128.03 62.3501 131.048 62.3501C134.281 62.3501 136.221 59.7701 136.221 55.9001Z" fill="black"/>
<path d="M154.541 58.0501C154.757 60.6301 157.343 62.3501 161.008 62.3501C164.456 62.3501 166.827 60.6301 166.827 58.2651C166.827 56.1151 165.318 55.0401 161.87 54.1801L158.421 53.3201C153.464 52.0301 151.308 49.8801 151.308 46.2251C151.308 41.7101 155.403 38.4851 161.008 38.4851C166.612 38.4851 170.491 41.7101 170.707 46.2251H166.612C166.396 43.6451 164.241 41.9251 161.008 41.9251C157.774 41.9251 155.619 43.6451 155.619 46.0101C155.619 47.9451 157.128 49.0201 160.576 49.8801L163.594 50.5251C168.982 51.8151 171.353 53.9651 171.353 57.8351C171.353 62.7801 167.474 66.0051 161.008 66.0051C154.972 66.0051 151.093 62.9951 150.877 58.0501H154.541Z" fill="black"/>
<path d="M179.544 41.4951V46.0101H183.208V49.2351H179.544V59.9851C179.544 61.7051 180.19 62.3501 181.915 62.3501C182.346 62.3501 182.777 62.3501 183.208 62.3501V65.5751C182.561 65.7901 181.699 65.7901 181.053 65.7901C177.173 65.7901 175.664 64.2851 175.664 60.6301V49.4501H172.862V46.2251H175.664V41.7101H179.544V41.4951Z" fill="black"/>
<path d="M185.579 55.9C185.579 49.88 189.243 46.01 194.847 46.01C200.451 46.01 204.115 49.88 204.115 55.9C204.115 62.135 200.451 65.79 194.847 65.79C189.028 65.79 185.579 61.92 185.579 55.9ZM200.02 55.9C200.02 51.6 198.08 49.235 194.847 49.235C191.614 49.235 189.674 51.6 189.674 55.9C189.674 60.2 191.614 62.565 194.847 62.565C198.08 62.565 200.02 59.985 200.02 55.9Z" fill="black"/>
<path d="M207.348 46.0102H211.228V49.4502C211.659 47.3002 213.815 45.7952 215.97 46.0102C216.401 46.0102 216.832 46.0102 217.263 46.2252V49.8802C216.617 49.6652 215.97 49.6652 215.539 49.6652C213.383 49.6652 211.444 51.3852 211.444 53.5352C211.444 53.7502 211.444 53.9652 211.444 54.1802V65.7902H207.348V46.0102Z" fill="black"/>
<path d="M235.799 59.7702C235.368 63.2102 231.704 65.7902 227.393 65.7902C221.789 65.7902 218.125 61.9202 218.125 55.9002C218.125 49.8802 221.574 45.7952 227.178 45.7952C232.566 45.7952 236.015 49.4502 236.015 55.4702V56.7602H222.221V56.9752C222.005 59.7702 223.945 62.1352 226.747 62.5652C226.962 62.5652 227.178 62.5652 227.393 62.5652C229.333 62.7802 231.273 61.7052 231.92 59.7702H235.799ZM222.221 53.9652H231.92C232.135 51.3852 229.98 49.2352 227.393 49.0202C227.178 49.0202 227.178 49.0202 226.962 49.0202C224.376 49.0202 222.221 51.1702 222.221 53.9652Z" fill="black"/>
<path d="M81.4737 18.705C84.7068 18.49 87.2932 20.855 87.5088 23.865C87.5088 24.295 87.5088 24.51 87.5088 24.94C87.5088 29.025 85.3534 31.39 81.4737 31.39H76.7318V18.49H81.4737V18.705ZM78.8872 29.885H81.2581C83.4135 30.1 85.3534 28.38 85.5689 26.015C85.5689 25.8 85.5689 25.37 85.5689 25.155C85.7845 23.005 84.2757 20.855 82.1203 20.64C81.9048 20.64 81.6892 20.64 81.2581 20.64H78.8872V29.885Z" fill="black"/>
<path d="M89.8797 26.6601C89.6642 24.0801 91.3885 21.9301 93.9749 21.7151C96.5614 21.5001 98.7168 23.2201 98.9323 25.8001C98.9323 26.0151 98.9323 26.4451 98.9323 26.6601C99.1479 29.2401 97.4236 31.3901 94.8371 31.6051C92.2506 31.8201 90.0952 30.1001 89.8797 27.5201C89.8797 27.3051 89.8797 27.0901 89.8797 26.6601ZM96.9925 26.6601C96.9925 24.5101 96.1303 23.4351 94.406 23.4351C92.6817 23.4351 91.8195 24.7251 91.8195 26.6601C91.8195 28.8101 92.6817 30.1001 94.406 30.1001C96.1303 30.1001 96.9925 28.8101 96.9925 26.6601Z" fill="black"/>
<path d="M111.218 31.6052H109.278L107.338 24.5102H107.123L105.183 31.6052H103.243L100.657 21.9302H102.596L104.321 29.2402H104.536L106.476 21.9302H108.416L110.356 29.2402H110.571L112.296 21.9302H114.236L111.218 31.6052Z" fill="black"/>
<path d="M116.175 21.93H118.115V23.435H118.331C118.762 22.36 120.055 21.715 121.133 21.715C122.857 21.5 124.366 22.79 124.581 24.725C124.581 24.94 124.581 25.155 124.581 25.37V31.605H122.642V25.8C122.642 24.295 121.995 23.435 120.486 23.435C119.193 23.435 118.115 24.295 118.115 25.585C118.115 25.8 118.115 25.8 118.115 26.015V31.605H116.175V21.93Z" fill="black"/>
<path d="M127.383 18.0601H129.323V31.6051H127.383V18.0601Z" fill="black"/>
<path d="M131.91 26.6601C131.694 24.0801 133.419 21.9301 136.005 21.7151C138.591 21.5001 140.747 23.2201 140.962 25.8001C140.962 26.0151 140.962 26.4451 140.962 26.6601C141.178 29.2401 139.454 31.3901 136.867 31.6051C134.281 31.8201 132.125 30.1001 131.91 27.5201C131.91 27.3051 131.91 27.0901 131.91 26.6601ZM139.238 26.6601C139.238 24.5101 138.376 23.4351 136.652 23.4351C134.927 23.4351 134.065 24.7251 134.065 26.6601C134.065 28.8101 134.927 30.1001 136.652 30.1001C138.16 30.1001 139.238 28.8101 139.238 26.6601Z" fill="black"/>
<path d="M143.118 28.8101C143.118 27.0901 144.411 26.0151 146.782 26.0151L149.368 25.8001V24.9401C149.368 23.8651 148.722 23.4351 147.429 23.4351C146.351 23.4351 145.704 23.8651 145.489 24.5101H143.549C143.764 22.7901 145.273 21.7151 147.429 21.7151C149.799 21.7151 151.308 23.0051 151.308 24.9401V31.6051H149.368V30.3151H149.153C148.506 31.3901 147.429 31.8201 146.135 31.8201C144.627 32.0351 143.118 30.7451 142.902 29.2401C143.118 29.0251 143.118 29.0251 143.118 28.8101ZM149.368 27.9501V27.0901L146.997 27.3051C145.704 27.3051 145.058 27.9501 145.058 28.5951C145.058 29.4551 145.92 29.8851 146.782 29.8851C148.075 30.3151 149.153 29.4551 149.368 27.9501C149.368 28.1651 149.368 28.1651 149.368 27.9501Z" fill="black"/>
<path d="M153.679 26.6601C153.679 23.6501 155.188 21.7151 157.774 21.7151C159.068 21.7151 160.145 22.3601 160.792 23.4351H161.008V18.0601H162.947V31.6051H161.008V30.1001H160.792C160.145 31.1751 159.068 31.8201 157.774 31.8201C155.403 31.8201 153.679 29.8851 153.679 26.6601ZM155.835 26.6601C155.835 28.8101 156.912 29.8851 158.421 29.8851C159.93 29.8851 161.008 28.5951 161.008 26.6601C161.008 24.7251 159.93 23.4351 158.421 23.4351C156.697 23.4351 155.835 24.7251 155.835 26.6601Z" fill="black"/>
<path d="M170.707 26.6601C170.491 24.0801 172.216 21.9301 174.802 21.7151C177.388 21.5001 179.544 23.2201 179.759 25.8001C179.759 26.0151 179.759 26.4451 179.759 26.6601C179.975 29.2401 178.251 31.3901 175.664 31.6051C173.078 31.8201 170.922 30.1001 170.707 27.5201C170.707 27.3051 170.707 27.0901 170.707 26.6601ZM178.035 26.6601C178.035 24.5101 177.173 23.4351 175.449 23.4351C173.724 23.4351 172.862 24.7251 172.862 26.6601C172.862 28.8101 173.724 30.1001 175.449 30.1001C176.957 30.1001 178.035 28.8101 178.035 26.6601Z" fill="black"/>
<path d="M182.561 21.93H184.501V23.435H184.717C185.148 22.36 186.441 21.715 187.519 21.715C189.243 21.5 190.752 22.79 190.967 24.725C190.967 24.94 190.967 25.155 190.967 25.37V31.605H189.028V25.8C189.028 24.295 188.381 23.435 186.872 23.435C185.579 23.435 184.501 24.295 184.501 25.585C184.501 25.8 184.501 25.8 184.501 26.015V31.605H182.561V21.93Z" fill="black"/>
<path d="M201.529 19.5649V21.9299H203.684V23.6499H201.529V28.5949C201.529 29.6699 201.96 30.0999 202.822 30.0999C203.038 30.0999 203.253 30.0999 203.469 30.0999V31.6049C203.038 31.6049 202.822 31.6049 202.391 31.6049C200.236 31.6049 199.373 30.9599 199.373 29.0249V23.6499H197.865V22.1449H199.373V19.5649H201.529Z" fill="black"/>
<path d="M206.271 18.0601H208.211V23.4351H208.426C208.857 22.3601 210.15 21.5001 211.444 21.7151C213.168 21.7151 214.677 23.0051 214.892 24.7251C214.892 24.9401 214.892 25.1551 214.892 25.3701V31.6051H212.952V25.8001C212.952 24.2951 212.306 23.4351 210.797 23.4351C209.504 23.4351 208.426 24.2951 208.426 25.5851C208.426 25.8001 208.426 25.8001 208.426 26.0151V31.6051H206.486L206.271 18.0601Z" fill="black"/>
<path d="M225.885 29.0252C225.454 30.7452 223.514 32.0352 221.574 31.8202C219.203 31.8202 217.048 29.8852 217.048 27.5202C217.048 27.3052 217.048 27.0902 217.048 26.8752C216.617 24.5102 218.341 22.1452 220.927 21.9302C221.143 21.9302 221.358 21.9302 221.574 21.9302C224.376 21.9302 225.885 23.8652 225.885 26.8752V27.5202H218.987C218.772 29.0252 219.85 30.1002 221.358 30.3152H221.574C222.436 30.5302 223.514 29.8852 223.945 29.2402L225.885 29.0252ZM218.987 25.8002H223.945C223.945 24.5102 223.083 23.4352 221.789 23.2202H221.574C220.281 23.4352 218.987 24.5102 218.987 25.8002Z" fill="black"/>
</svg>
