<svg width="196" height="196" viewBox="0 0 196 196" fill="none" xmlns="http://www.w3.org/2000/svg">
<g clip-path="url(#clip0_2_23)">
<path d="M98 52.0625C103.074 52.0625 107.188 47.9491 107.188 42.875C107.188 37.8009 103.074 33.6875 98 33.6875C92.9259 33.6875 88.8125 37.8009 88.8125 42.875C88.8125 47.9491 92.9259 52.0625 98 52.0625Z" fill="white"/>
<path d="M12.25 76.5625H183.75C189.244 76.5625 194.064 72.9059 195.547 67.6139C197.029 62.3219 194.806 56.693 190.111 53.8418L104.361 1.77931C102.404 0.591062 100.202 0 98 0C95.798 0 93.5961 0.591062 91.6422 1.77931L5.89221 53.8418C1.1974 56.693 -1.02904 62.3249 0.456274 67.6139C1.93546 72.9059 6.75584 76.5625 12.25 76.5625ZM98 27.5625C106.459 27.5625 113.312 34.4164 113.312 42.875C113.312 51.3336 106.459 58.1875 98 58.1875C89.5413 58.1875 82.6875 51.3336 82.6875 42.875C82.6875 34.4164 89.5413 27.5625 98 27.5625Z" fill="white"/>
<path d="M128.625 82.6875H104.125V159.25H128.625V82.6875Z" fill="white"/>
<path d="M165.375 82.6875H140.875V159.25H165.375V82.6875Z" fill="white"/>
<path d="M91.875 82.6875H67.375V159.25H91.875V82.6875Z" fill="white"/>
<path d="M55.125 82.6875H30.625V159.25H55.125V82.6875Z" fill="white"/>
<path d="M12.25 177.625H183.75C183.75 170.86 178.265 165.375 171.5 165.375H24.5C17.7349 165.375 12.25 170.86 12.25 177.625Z" fill="white"/>
<path d="M194.3 183.75H1.69969C0.646187 185.56 0 187.633 0 189.875V196H196V189.875C196 187.633 195.354 185.56 194.3 183.75Z" fill="white"/>
</g>
<defs>
<clipPath id="clip0_2_23">
<rect width="196" height="196" fill="white"/>
</clipPath>
</defs>
</svg>
