<svg width="972" height="157" viewBox="0 0 972 157" fill="none" xmlns="http://www.w3.org/2000/svg">
<g clip-path="url(#clip0_1_17)">
<path fill-rule="evenodd" clip-rule="evenodd" d="M236.067 63.1459H236.103V61.9983H220.595V63.1458C222.499 63.1458 224.326 63.9035 225.673 65.2522C227.02 66.601 227.776 68.4303 227.776 70.3377V117.855C227.775 118.389 227.563 118.902 227.185 119.28C226.808 119.658 226.296 119.871 225.762 119.872C225.406 119.871 225.057 119.776 224.749 119.596C224.442 119.415 224.189 119.156 224.014 118.845L191.96 61.9983H175.216V63.1459C177.12 63.1459 178.947 63.9036 180.293 65.2522C181.64 66.6009 182.397 68.4301 182.397 70.3375V116.532C182.397 117.468 182.213 118.395 181.855 119.259C181.498 120.124 180.974 120.909 180.313 121.571C179.652 122.233 178.868 122.758 178.005 123.116C177.141 123.474 176.216 123.658 175.282 123.658H175.216V124.811H190.627V123.658C188.74 123.658 186.931 122.907 185.596 121.571C184.262 120.235 183.513 118.422 183.513 116.532V69.0092C183.513 68.1518 184.013 67.3365 184.821 67.0467C185.269 66.8798 185.761 66.8781 186.21 67.0419C186.658 67.2057 187.034 67.5243 187.269 67.9404L219.359 124.811H236.103V123.658C234.189 123.658 232.353 122.896 231 121.541C229.646 120.185 228.886 118.347 228.886 116.43V70.3379C228.886 68.4304 229.642 66.6011 230.989 65.2524C232.336 63.9036 234.162 63.1459 236.067 63.1459ZM256.404 116.466V70.3377C256.404 69.3932 256.59 68.4579 256.951 67.5852C257.311 66.7126 257.84 65.9196 258.507 65.2518C259.174 64.5839 259.966 64.0541 260.837 63.6928C261.709 63.3314 262.643 63.1455 263.586 63.1458H263.592V61.9983H242.717V63.1456C243.66 63.1454 244.594 63.3313 245.465 63.6926C246.337 64.054 247.129 64.5837 247.795 65.2516C248.462 65.9195 248.991 66.7124 249.352 67.5851C249.713 68.4578 249.899 69.3931 249.898 70.3376V116.466C249.897 118.373 249.14 120.202 247.794 121.551C246.447 122.899 244.621 123.657 242.717 123.658V124.811H263.592V123.658H263.586C261.682 123.658 259.856 122.9 258.509 121.551C257.162 120.203 256.405 118.373 256.404 116.466ZM321.222 112.922C318.959 116.233 315.923 118.942 312.378 120.814C308.833 122.686 304.886 123.664 300.878 123.664H289.126C287.729 123.664 286.388 123.108 285.4 122.118C284.412 121.128 283.856 119.786 283.856 118.386V70.3376C283.856 69.3931 284.042 68.4579 284.403 67.5854C284.764 66.7128 285.293 65.92 285.96 65.2522C286.627 64.5843 287.418 64.0546 288.289 63.6932C289.161 63.3318 290.095 63.1458 291.038 63.1459H291.044V61.9983H270.169V63.1459C272.074 63.1459 273.9 63.9036 275.247 65.2522C276.594 66.6009 277.351 68.4301 277.351 70.3375V116.473C277.351 118.38 276.594 120.209 275.247 121.558C273.9 122.906 272.074 123.664 270.169 123.664V124.811H321.223L321.222 112.922ZM338.904 123.664V99.208C338.904 98.515 339.04 97.8288 339.305 97.1886C339.57 96.5484 339.958 95.9667 340.447 95.4767C340.936 94.9867 341.517 94.598 342.156 94.3329C342.796 94.0678 343.481 93.9313 344.173 93.9314H350.74C352.115 93.9313 353.475 94.2022 354.745 94.7288C356.015 95.2554 357.168 96.0273 358.14 97.0005C359.112 97.9737 359.883 99.129 360.409 100.401C360.934 101.672 361.205 103.035 361.205 104.411H362.349V82.3293H361.205C361.205 83.7056 360.934 85.0684 360.409 86.34C359.883 87.6115 359.112 88.7669 358.14 89.7401C357.168 90.7133 356.015 91.4852 354.745 92.0118C353.475 92.5384 352.115 92.8093 350.74 92.8092H344.18C343.488 92.8093 342.803 92.6728 342.164 92.4077C341.525 92.1425 340.944 91.7539 340.455 91.2639C339.965 90.7739 339.577 90.1922 339.313 89.552C339.048 88.9118 338.912 88.2256 338.912 87.5326V63.1423H357.154C361.365 63.1435 365.424 64.7184 368.537 67.559C371.649 70.3995 373.591 74.3012 373.983 78.5003V78.5084H375.127L373.698 62.0041H325.216V63.1501C327.122 63.1509 328.949 63.9092 330.296 65.2584C331.643 66.6076 332.401 68.4373 332.402 70.3454V116.46C332.402 117.405 332.217 118.341 331.856 119.215C331.495 120.088 330.966 120.882 330.299 121.55C329.631 122.218 328.839 122.748 327.967 123.109C327.095 123.471 326.16 123.656 325.216 123.656V124.81H374.844L376.272 108.306H375.127C374.736 112.505 372.794 116.406 369.681 119.247C366.568 122.087 362.509 123.662 358.298 123.664H338.904ZM438.712 61.9744L428.923 61.9872L415.216 61.9992V63.1223C416.162 63.1222 417.098 63.3087 417.972 63.6712C418.846 64.0337 419.64 64.565 420.309 65.2348C420.978 65.9046 421.509 66.6998 421.871 67.575C422.233 68.4502 422.419 69.3883 422.419 70.3356V116.438C422.419 117.385 422.233 118.323 421.871 119.199C421.509 120.074 420.978 120.869 420.309 121.539C419.64 122.209 418.846 122.74 417.972 123.103C417.098 123.465 416.162 123.652 415.216 123.652V124.787L428.923 124.8L438.712 124.812C456.051 124.879 472.121 110.881 472.181 93.5293V93.2572C472.121 75.9059 456.051 61.9079 438.712 61.9744ZM465.678 93.4985C465.666 97.624 464.841 101.707 463.249 105.512C461.656 109.317 459.329 112.769 456.4 115.671L456.286 115.779C451.134 120.872 442.206 123.718 434.972 123.687L434.183 123.681C432.79 123.678 431.455 123.121 430.471 122.134C429.488 121.146 428.935 119.808 428.934 118.413V68.4084C428.93 67.7147 429.063 67.0271 429.325 66.3849C429.586 65.7427 429.972 65.1586 430.46 64.6658C430.947 64.1731 431.527 63.7816 432.166 63.5136C432.805 63.2456 433.49 63.1064 434.183 63.1041L434.972 63.0981C442.206 63.0738 451.134 65.9133 456.286 71.0062L456.4 71.1151C459.329 74.0165 461.656 77.4688 463.248 81.2737C464.841 85.0786 465.666 89.161 465.678 93.2865V93.4985ZM489.911 123.664V99.208C489.911 98.515 490.047 97.8288 490.312 97.1886C490.577 96.5484 490.965 95.9667 491.454 95.4767C491.943 94.9867 492.524 94.598 493.163 94.3329C493.803 94.0678 494.488 93.9313 495.18 93.9314H501.747C503.122 93.9313 504.482 94.2022 505.752 94.7288C507.022 95.2554 508.175 96.0273 509.147 97.0005C510.119 97.9737 510.89 99.129 511.416 100.401C511.942 101.672 512.212 103.035 512.212 104.411H513.356V82.3293H512.212C512.212 83.7056 511.942 85.0684 511.416 86.34C510.89 87.6115 510.119 88.7669 509.147 89.7401C508.175 90.7133 507.022 91.4852 505.752 92.0118C504.482 92.5384 503.122 92.8093 501.747 92.8092H495.189C494.497 92.8093 493.812 92.6728 493.172 92.4077C492.533 92.1425 491.952 91.7539 491.463 91.2639C490.974 90.7739 490.586 90.1922 490.321 89.552C490.056 88.9118 489.92 88.2256 489.92 87.5326V63.1423H508.162C512.373 63.1438 516.432 64.7188 519.545 67.5593C522.657 70.3998 524.599 74.3013 524.991 78.5003V78.5084H526.136L524.707 62.0041H476.225V63.1501C478.13 63.1509 479.957 63.9093 481.304 65.2585C482.651 66.6077 483.408 68.4374 483.409 70.3454V116.46C483.409 117.405 483.224 118.341 482.863 119.214C482.502 120.088 481.973 120.881 481.306 121.549C480.639 122.218 479.847 122.748 478.975 123.109C478.103 123.47 477.168 123.656 476.225 123.656V124.81H525.851L527.28 108.306H526.136C525.744 112.505 523.802 116.406 520.689 119.247C517.577 122.087 513.518 123.662 509.306 123.664L489.911 123.664ZM584.918 112.922C582.654 116.233 579.618 118.942 576.073 120.814C572.528 122.686 568.581 123.664 564.573 123.664H552.821C552.129 123.664 551.444 123.528 550.804 123.262C550.165 122.997 549.584 122.608 549.095 122.118C548.605 121.628 548.217 121.046 547.952 120.406C547.687 119.766 547.551 119.079 547.551 118.386V70.3377C547.551 68.4303 548.308 66.6011 549.655 65.2524C551.001 63.9037 552.828 63.146 554.732 63.146H554.739V61.9983H533.865V63.1459C535.769 63.1459 537.596 63.9036 538.942 65.2523C540.289 66.601 541.046 68.4302 541.046 70.3376V116.473C541.046 118.38 540.289 120.209 538.942 121.558C537.596 122.906 535.769 123.664 533.865 123.664V124.811H584.918V112.922ZM635.721 78.5004H636.858L636.46 73.8823L635.429 61.9959H587.255L586.224 73.8823L585.826 78.5004H586.971V78.4922C587.354 74.3725 589.231 70.536 592.246 67.7077C595.262 64.8795 599.207 63.2553 603.337 63.1423H608.086V116.469C608.087 117.414 607.902 118.35 607.541 119.223C607.181 120.096 606.652 120.89 605.984 121.558C605.317 122.226 604.525 122.756 603.653 123.117C602.781 123.479 601.846 123.664 600.902 123.663V124.81H621.791V123.663C619.885 123.662 618.059 122.904 616.711 121.555C615.364 120.206 614.607 118.377 614.605 116.469V63.1423H619.355C623.485 63.257 627.431 64.8827 630.447 67.7123C633.462 70.542 635.338 74.3798 635.721 78.5004ZM690.758 122.339C689.519 121.474 688.573 120.252 688.046 118.834L667.004 62.0041H653.21V63.1501C654.575 63.1495 655.884 63.6909 656.85 64.6558C657.817 65.6206 658.361 66.9299 658.365 68.2966C658.362 68.9039 658.255 69.5062 658.049 70.0772L640.286 118.525C639.735 120.032 638.734 121.333 637.42 122.252C636.106 123.171 634.542 123.664 632.939 123.664V124.81H648.315V123.664C647.8 123.663 647.288 123.584 646.797 123.428C646.306 123.27 645.844 123.037 645.425 122.737C644.964 122.406 644.58 121.978 644.301 121.484C644.021 120.99 643.852 120.44 643.806 119.874C643.76 119.308 643.837 118.738 644.032 118.205C644.228 117.672 644.537 117.187 644.938 116.785L665.802 95.8908C666.223 95.4686 666.744 95.1592 667.316 94.9911C667.888 94.823 668.494 94.8014 669.076 94.9285C669.659 95.0556 670.2 95.3271 670.651 95.7183C671.101 96.1095 671.446 96.6077 671.655 97.1673L678.507 115.566C678.845 116.474 678.959 117.45 678.838 118.412C678.718 119.373 678.366 120.291 677.814 121.087C677.262 121.883 676.526 122.533 675.668 122.981C674.811 123.43 673.857 123.664 672.89 123.664V124.81H694.979V123.664C693.47 123.665 691.996 123.202 690.758 122.339ZM666.89 93.1835L646.659 113.444C645.425 114.68 643.387 113.371 643.988 111.737L660.403 66.9228L668.1 87.6061C668.454 88.554 668.528 89.5839 668.313 90.5728C668.099 91.5618 667.605 92.468 666.89 93.1835ZM769.724 93.4442C769.724 93.4442 769.525 93.4382 769.525 93.1785C769.522 93.1172 769.54 93.0566 769.576 93.0071C769.612 92.9576 769.664 92.9222 769.724 92.9068C776.935 91.1377 782.211 84.4114 781.625 76.5136C781.028 68.4168 774.016 62.2939 765.962 61.9983H733.911V63.1458C735.819 63.1458 737.648 63.9047 738.997 65.2556C740.346 66.6064 741.104 68.4386 741.104 70.349V116.455C741.104 118.366 740.346 120.198 738.997 121.549C737.648 122.9 735.819 123.658 733.911 123.658V124.806H747.459L769.284 124.812C771.342 124.812 773.381 124.406 775.283 123.617C777.184 122.828 778.912 121.672 780.368 120.214C781.824 118.756 782.978 117.025 783.766 115.121C784.554 113.216 784.959 111.175 784.959 109.113V109.1C784.959 100.581 778.171 93.6857 769.724 93.4442ZM747.609 63.1458H760.391C767.837 63.1458 774.312 68.6583 775.084 76.073C775.138 76.6097 775.168 77.1539 775.168 77.7031C775.175 80.706 774.308 83.6457 772.673 86.1627C769.929 90.4014 765.112 92.8347 760.072 92.8347H752.879C751.481 92.834 750.14 92.277 749.152 91.2862C748.163 90.2954 747.609 88.952 747.609 87.5516V63.1458ZM778.454 109.113C778.454 109.662 778.424 110.206 778.37 110.743C777.604 118.151 771.135 123.658 763.695 123.658H747.609V99.2405C747.609 98.5487 747.744 97.8636 748.008 97.2242C748.272 96.5849 748.659 96.0039 749.148 95.5144C749.636 95.0249 750.215 94.6365 750.854 94.3714C751.492 94.1063 752.176 93.9697 752.866 93.9694H763.358C768.403 93.9694 773.221 96.4027 775.963 100.647C777.594 103.164 778.459 106.101 778.454 109.1V109.113ZM841.115 122.339C839.877 121.474 838.931 120.252 838.404 118.835L817.361 62.0041H803.569V63.1501C804.933 63.1497 806.242 63.6913 807.209 64.656C808.175 65.6208 808.72 66.93 808.724 68.2966C808.72 68.9038 808.613 69.506 808.407 70.0772L790.644 118.525C790.093 120.032 789.092 121.334 787.778 122.253C786.464 123.172 784.9 123.664 783.297 123.664V124.81H798.673V123.664C798.158 123.663 797.646 123.584 797.156 123.428C796.665 123.271 796.202 123.037 795.784 122.737C795.323 122.406 794.939 121.978 794.66 121.484C794.38 120.99 794.211 120.44 794.165 119.874C794.118 119.308 794.196 118.738 794.391 118.205C794.586 117.672 794.895 117.187 795.296 116.785L816.16 95.8908C816.582 95.4686 817.103 95.1592 817.675 94.9911C818.247 94.823 818.852 94.8014 819.435 94.9285C820.018 95.0556 820.559 95.3271 821.01 95.7183C821.46 96.1095 821.805 96.6077 822.013 97.1673L828.866 115.566C829.204 116.474 829.318 117.45 829.197 118.412C829.076 119.373 828.725 120.291 828.173 121.087C827.62 121.883 826.884 122.533 826.026 122.982C825.169 123.43 824.215 123.664 823.247 123.664V124.81H845.338V123.664C843.828 123.665 842.354 123.203 841.115 122.339ZM817.248 93.1835L797.018 113.444C795.784 114.68 793.746 113.371 794.346 111.737L810.762 66.9228L818.457 87.6061C818.811 88.554 818.885 89.5839 818.671 90.5728C818.456 91.5618 817.962 92.468 817.248 93.1835ZM904.56 63.1459H904.596V61.9983H889.087V63.1458C890.03 63.1457 890.964 63.3316 891.835 63.693C892.707 64.0544 893.498 64.5842 894.165 65.2521C894.832 65.9199 895.361 66.7128 895.722 67.5854C896.083 68.458 896.268 69.3932 896.268 70.3377V117.855C896.267 118.389 896.055 118.902 895.678 119.28C895.3 119.658 894.789 119.871 894.255 119.872C893.899 119.871 893.549 119.776 893.242 119.596C892.935 119.415 892.681 119.156 892.507 118.845L860.453 61.9983H843.708V63.1459C845.613 63.1459 847.439 63.9036 848.786 65.2523C850.133 66.601 850.89 68.4302 850.89 70.3376V116.532C850.889 118.422 850.14 120.234 848.806 121.571C847.471 122.907 845.662 123.658 843.775 123.658H843.708V124.811H859.12V123.658C857.233 123.658 855.423 122.907 854.089 121.571C852.755 120.235 852.005 118.422 852.005 116.532V69.0092C852.005 68.1518 852.505 67.3365 853.314 67.0467C853.761 66.8797 854.254 66.878 854.702 67.0418C855.151 67.2056 855.526 67.5242 855.761 67.9404L887.852 124.811H904.596V123.658C902.682 123.658 900.846 122.896 899.493 121.541C898.139 120.185 897.379 118.347 897.379 116.43V70.3379C897.379 68.4305 898.135 66.6012 899.482 65.2524C900.829 63.9037 902.655 63.146 904.56 63.1459ZM923.653 89.6712H923.661V70.3132C923.659 69.3712 923.844 68.4381 924.203 67.5676C924.563 66.6971 925.09 65.9061 925.756 65.24C926.421 64.5739 927.211 64.0458 928.08 63.6858C928.949 63.3259 929.881 63.1412 930.821 63.1423V61.9959H909.982V63.1501C911.881 63.1505 913.701 63.9062 915.044 65.2509C916.387 66.5957 917.141 68.4193 917.141 70.321V116.452C917.14 118.362 916.382 120.194 915.033 121.545C913.685 122.895 911.856 123.655 909.949 123.656V124.818H930.797V123.664C928.905 123.663 927.091 122.909 925.752 121.57C924.414 120.23 923.662 118.413 923.661 116.517V99.0941C923.661 98.2052 923.918 97.3353 924.402 96.5901C924.886 95.8448 925.575 95.2562 926.386 94.8955C927.198 94.5349 928.096 94.4178 928.973 94.5583C929.849 94.6989 930.666 95.0912 931.324 95.6875L957.822 119.671C958.063 119.878 958.255 120.135 958.387 120.425C958.519 120.714 958.586 121.028 958.585 121.346C958.588 121.649 958.531 121.949 958.417 122.229C958.303 122.51 958.135 122.765 957.922 122.98C957.709 123.194 957.456 123.365 957.177 123.481C956.897 123.597 956.598 123.656 956.296 123.655V124.801H971.98V123.647C971.161 123.648 970.371 123.344 969.764 122.793L937.332 93.4436H931.901C930.277 93.4436 929.571 91.3786 930.861 90.3785L965.039 64.004C965.674 63.4492 966.487 63.1431 967.329 63.1422V61.9959H951.636V63.1423C953.78 63.1423 954.876 65.7277 953.39 67.2805L926.495 90.9557C926.248 91.1735 925.943 91.3153 925.618 91.3642C925.292 91.4131 924.96 91.367 924.66 91.2315C924.36 91.0959 924.106 90.8766 923.927 90.5999C923.748 90.3231 923.653 90.0007 923.653 89.6712Z" fill="url(#paint0_linear_1_17)"/>
</g>
<path d="M11.3712 0C16.4604 0 17.4439 1.66813 18.7469 4.90625C20.9596 10.4258 42.7426 59.243 42.7426 59.243C50.3397 58.2372 56.8549 55.6614 62.8538 51.3439C70.0575 46.1678 75.5893 39.1764 81.4407 31.7925C87.4642 24.1633 93.709 16.2887 102.117 10.2541C111.73 3.36078 122.868 0 136.07 0C137.742 0 139.291 0.834064 140.201 2.23235C141.11 3.63063 141.258 5.37235 140.57 6.89328L74.9992 154.081C74.2125 155.847 72.4423 157 70.5 157C68.5577 157 66.7875 155.847 66.0008 154.081L0.430485 6.89328C-0.257918 5.37235 -0.110403 3.63063 0.799272 2.23235C1.70895 0.834064 3.25785 0 4.92968 0H11.3712Z" fill="url(#paint1_linear_1_17)"/>
<defs>
<linearGradient id="paint0_linear_1_17" x1="504.963" y1="-27.3968" x2="448.217" y2="218.408" gradientUnits="userSpaceOnUse">
<stop stop-color="#2EA6F6"/>
<stop offset="1" stop-color="#2350B2"/>
</linearGradient>
<linearGradient id="paint1_linear_1_17" x1="122.5" y1="-46" x2="35.5" y2="164" gradientUnits="userSpaceOnUse">
<stop stop-color="#2350B2"/>
<stop offset="1" stop-color="#2EA6F6"/>
</linearGradient>
<clipPath id="clip0_1_17">
<rect width="797" height="63" fill="white" transform="translate(175 62)"/>
</clipPath>
</defs>
</svg>
