<?xml version="1.0" encoding="utf-8"?>
<!-- Generator: Adobe Illustrator 24.3.0, SVG Export Plug-In . SVG Version: 6.00 Build 0)  -->
<svg version="1.1" id="Layer_1" xmlns="http://www.w3.org/2000/svg" xmlns:xlink="http://www.w3.org/1999/xlink" x="0px" y="0px"
	 viewBox="0 0 972 157" style="enable-background:new 0 0 972 157;" xml:space="preserve">
<style type="text/css">
	.st0{clip-path:url(#SVGID_2_);}
	.st1{fill-rule:evenodd;clip-rule:evenodd;fill:#FFFFFF;}
	.st2{fill:#FFFFFF;}
</style>
<g>
	<defs>
		<rect id="SVGID_1_" x="175" y="62" width="797" height="63"/>
	</defs>
	<clipPath id="SVGID_2_">
		<use xlink:href="#SVGID_1_"  style="overflow:visible;"/>
	</clipPath>
	<g class="st0">
		<path class="st1" d="M236.07,63.15h0.04V62H220.6v1.15c1.9,0,3.73,0.76,5.08,2.11c1.35,1.35,2.1,3.18,2.1,5.09v47.52
			c0,0.53-0.21,1.05-0.59,1.42c-0.38,0.38-0.89,0.59-1.42,0.59c-0.36,0-0.7-0.1-1.01-0.28c-0.31-0.18-0.56-0.44-0.73-0.75L191.96,62
			h-16.74v1.15c1.9,0,3.73,0.76,5.08,2.11c1.35,1.35,2.1,3.18,2.1,5.09v46.19c0,0.94-0.18,1.86-0.54,2.73
			c-0.36,0.86-0.88,1.65-1.54,2.31c-0.66,0.66-1.45,1.19-2.31,1.54c-0.86,0.36-1.79,0.54-2.72,0.54h-0.07v1.15h15.41v-1.15
			c-1.89,0-3.7-0.75-5.03-2.09c-1.33-1.34-2.08-3.15-2.08-5.04V69.01c0-0.86,0.5-1.67,1.31-1.96c0.45-0.17,0.94-0.17,1.39,0
			c0.45,0.16,0.82,0.48,1.06,0.9l32.09,56.87h16.74v-1.15c-1.91,0-3.75-0.76-5.1-2.12c-1.35-1.36-2.11-3.19-2.11-5.11V70.34
			c0-1.91,0.76-3.74,2.1-5.09C232.34,63.9,234.16,63.15,236.07,63.15z M256.4,116.47V70.34c0-0.94,0.19-1.88,0.55-2.75
			c0.36-0.87,0.89-1.67,1.56-2.33c0.67-0.67,1.46-1.2,2.33-1.56c0.87-0.36,1.81-0.55,2.75-0.55h0.01V62h-20.88v1.15
			c0.94,0,1.88,0.19,2.75,0.55c0.87,0.36,1.66,0.89,2.33,1.56c0.67,0.67,1.2,1.46,1.56,2.33c0.36,0.87,0.55,1.81,0.55,2.75v46.13
			c0,1.91-0.76,3.74-2.1,5.08c-1.35,1.35-3.17,2.11-5.08,2.11v1.15h20.88v-1.15h-0.01c-1.9,0-3.73-0.76-5.08-2.11
			C257.16,120.2,256.4,118.37,256.4,116.47z M321.22,112.92c-2.26,3.31-5.3,6.02-8.84,7.89c-3.54,1.87-7.49,2.85-11.5,2.85h-11.75
			c-1.4,0-2.74-0.56-3.73-1.55c-0.99-0.99-1.54-2.33-1.54-3.73V70.34c0-0.94,0.19-1.88,0.55-2.75c0.36-0.87,0.89-1.67,1.56-2.33
			c0.67-0.67,1.46-1.2,2.33-1.56c0.87-0.36,1.81-0.55,2.75-0.55h0.01V62h-20.88v1.15c1.9,0,3.73,0.76,5.08,2.11
			c1.35,1.35,2.1,3.18,2.1,5.09v46.14c0,1.91-0.76,3.74-2.1,5.08c-1.35,1.35-3.17,2.11-5.08,2.11v1.15h51.05L321.22,112.92z
			 M338.9,123.66V99.21c0-0.69,0.14-1.38,0.4-2.02c0.27-0.64,0.65-1.22,1.14-1.71c0.49-0.49,1.07-0.88,1.71-1.14
			c0.64-0.27,1.32-0.4,2.02-0.4h6.57c1.38,0,2.74,0.27,4.01,0.8c1.27,0.53,2.42,1.3,3.4,2.27c0.97,0.97,1.74,2.13,2.27,3.4
			c0.52,1.27,0.8,2.63,0.8,4.01h1.14V82.33h-1.14c0,1.38-0.27,2.74-0.8,4.01c-0.53,1.27-1.3,2.43-2.27,3.4
			c-0.97,0.97-2.12,1.75-3.4,2.27c-1.27,0.53-2.63,0.8-4.01,0.8h-6.56c-0.69,0-1.38-0.14-2.02-0.4c-0.64-0.27-1.22-0.65-1.71-1.14
			c-0.49-0.49-0.88-1.07-1.14-1.71c-0.26-0.64-0.4-1.33-0.4-2.02V63.14h18.24c4.21,0,8.27,1.58,11.38,4.42
			c3.11,2.84,5.05,6.74,5.45,10.94v0.01h1.14L373.7,62h-48.48v1.15c1.91,0,3.73,0.76,5.08,2.11c1.35,1.35,2.11,3.18,2.11,5.09v46.11
			c0,0.94-0.18,1.88-0.55,2.75c-0.36,0.87-0.89,1.67-1.56,2.34c-0.67,0.67-1.46,1.2-2.33,1.56c-0.87,0.36-1.81,0.55-2.75,0.55v1.15
			h49.63l1.43-16.5h-1.14c-0.39,4.2-2.33,8.1-5.45,10.94c-3.11,2.84-7.17,4.42-11.38,4.42H338.9z M438.71,61.97l-9.79,0.01
			L415.22,62v1.12c0.95,0,1.88,0.19,2.76,0.55c0.87,0.36,1.67,0.89,2.34,1.56c0.67,0.67,1.2,1.46,1.56,2.34
			c0.36,0.88,0.55,1.81,0.55,2.76v46.1c0,0.95-0.19,1.88-0.55,2.76c-0.36,0.88-0.89,1.67-1.56,2.34c-0.67,0.67-1.46,1.2-2.34,1.56
			c-0.87,0.36-1.81,0.55-2.76,0.55v1.14l13.71,0.01l9.79,0.01c17.34,0.07,33.41-13.93,33.47-31.28v-0.27
			C472.12,75.91,456.05,61.91,438.71,61.97z M465.68,93.5c-0.01,4.13-0.84,8.21-2.43,12.01c-1.59,3.81-3.92,7.26-6.85,10.16
			l-0.11,0.11c-5.15,5.09-14.08,7.94-21.31,7.91l-0.79-0.01c-1.39,0-2.73-0.56-3.71-1.55c-0.98-0.99-1.54-2.33-1.54-3.72v-50
			c0-0.69,0.13-1.38,0.39-2.02c0.26-0.64,0.65-1.23,1.13-1.72c0.49-0.49,1.07-0.88,1.71-1.15c0.64-0.27,1.32-0.41,2.02-0.41
			l0.79-0.01c7.23-0.02,16.16,2.82,21.31,7.91l0.11,0.11c2.93,2.9,5.26,6.35,6.85,10.16c1.59,3.8,2.42,7.89,2.43,12.01V93.5z
			 M489.91,123.66V99.21c0-0.69,0.14-1.38,0.4-2.02c0.26-0.64,0.65-1.22,1.14-1.71c0.49-0.49,1.07-0.88,1.71-1.14
			c0.64-0.27,1.33-0.4,2.02-0.4h6.57c1.38,0,2.73,0.27,4.01,0.8c1.27,0.53,2.42,1.3,3.39,2.27c0.97,0.97,1.74,2.13,2.27,3.4
			c0.53,1.27,0.8,2.63,0.8,4.01h1.14V82.33h-1.14c0,1.38-0.27,2.74-0.8,4.01c-0.53,1.27-1.3,2.43-2.27,3.4
			c-0.97,0.97-2.12,1.75-3.39,2.27c-1.27,0.53-2.63,0.8-4.01,0.8h-6.56c-0.69,0-1.38-0.14-2.02-0.4c-0.64-0.27-1.22-0.65-1.71-1.14
			c-0.49-0.49-0.88-1.07-1.14-1.71c-0.27-0.64-0.4-1.33-0.4-2.02V63.14h18.24c4.21,0,8.27,1.58,11.38,4.42
			c3.11,2.84,5.05,6.74,5.45,10.94v0.01h1.14L524.71,62h-48.48v1.15c1.9,0,3.73,0.76,5.08,2.11c1.35,1.35,2.1,3.18,2.11,5.09v46.11
			c0,0.94-0.18,1.88-0.55,2.75c-0.36,0.87-0.89,1.67-1.56,2.34c-0.67,0.67-1.46,1.2-2.33,1.56c-0.87,0.36-1.81,0.55-2.75,0.55v1.15
			h49.63l1.43-16.5h-1.14c-0.39,4.2-2.33,8.1-5.45,10.94c-3.11,2.84-7.17,4.42-11.38,4.42H489.91z M584.92,112.92
			c-2.26,3.31-5.3,6.02-8.85,7.89c-3.54,1.87-7.49,2.85-11.5,2.85h-11.75c-0.69,0-1.38-0.14-2.02-0.4
			c-0.64-0.26-1.22-0.65-1.71-1.14c-0.49-0.49-0.88-1.07-1.14-1.71c-0.27-0.64-0.4-1.33-0.4-2.02V70.34c0-1.91,0.76-3.74,2.1-5.09
			c1.35-1.35,3.17-2.11,5.08-2.11h0.01V62h-20.87v1.15c1.9,0,3.73,0.76,5.08,2.11c1.35,1.35,2.1,3.18,2.1,5.09v46.14
			c0,1.91-0.76,3.74-2.1,5.08c-1.35,1.35-3.17,2.11-5.08,2.11v1.15h51.05V112.92z M635.72,78.5h1.14l-0.4-4.62L635.43,62h-48.17
			l-1.03,11.89l-0.4,4.62h1.15v-0.01c0.38-4.12,2.26-7.96,5.27-10.78c3.02-2.83,6.96-4.45,11.09-4.57h4.75v53.33
			c0,0.94-0.18,1.88-0.54,2.75c-0.36,0.87-0.89,1.67-1.56,2.33c-0.67,0.67-1.46,1.2-2.33,1.56c-0.87,0.36-1.81,0.55-2.75,0.55v1.15
			h20.89v-1.15c-1.91,0-3.73-0.76-5.08-2.11c-1.35-1.35-2.1-3.18-2.11-5.09V63.14h4.75c4.13,0.11,8.08,1.74,11.09,4.57
			C633.46,70.54,635.34,74.38,635.72,78.5z M690.76,122.34c-1.24-0.86-2.18-2.09-2.71-3.5L667,62h-13.79v1.15
			c1.36,0,2.67,0.54,3.64,1.51c0.97,0.96,1.51,2.27,1.52,3.64c0,0.61-0.11,1.21-0.32,1.78l-17.76,48.45
			c-0.55,1.51-1.55,2.81-2.87,3.73c-1.31,0.92-2.88,1.41-4.48,1.41v1.15h15.38v-1.15c-0.52,0-1.03-0.08-1.52-0.24
			c-0.49-0.16-0.95-0.39-1.37-0.69c-0.46-0.33-0.84-0.76-1.12-1.25c-0.28-0.49-0.45-1.04-0.49-1.61c-0.05-0.57,0.03-1.14,0.23-1.67
			c0.2-0.53,0.51-1.02,0.91-1.42l20.86-20.89c0.42-0.42,0.94-0.73,1.51-0.9c0.57-0.17,1.18-0.19,1.76-0.06
			c0.58,0.13,1.12,0.4,1.58,0.79c0.45,0.39,0.79,0.89,1,1.45l6.85,18.4c0.34,0.91,0.45,1.88,0.33,2.85
			c-0.12,0.96-0.47,1.88-1.02,2.67c-0.55,0.8-1.29,1.45-2.15,1.89c-0.86,0.45-1.81,0.68-2.78,0.68v1.15h22.09v-1.15
			C693.47,123.67,692,123.2,690.76,122.34z M666.89,93.18l-20.23,20.26c-1.23,1.24-3.27-0.07-2.67-1.71l16.42-44.81l7.7,20.68
			c0.35,0.95,0.43,1.98,0.21,2.97C668.1,91.56,667.6,92.47,666.89,93.18z M769.72,93.44c0,0-0.2-0.01-0.2-0.27
			c0-0.06,0.01-0.12,0.05-0.17s0.09-0.08,0.15-0.1c7.21-1.77,12.49-8.5,11.9-16.39c-0.6-8.1-7.61-14.22-15.66-14.52h-32.05v1.15
			c1.91,0,3.74,0.76,5.09,2.11c1.35,1.35,2.11,3.18,2.11,5.09v46.11c0,1.91-0.76,3.74-2.11,5.09c-1.35,1.35-3.18,2.11-5.09,2.11
			v1.15h13.55l21.83,0.01c2.06,0,4.1-0.41,6-1.19c1.9-0.79,3.63-1.94,5.08-3.4s2.61-3.19,3.4-5.09c0.79-1.9,1.19-3.95,1.19-6.01
			v-0.01C784.96,100.58,778.17,93.69,769.72,93.44z M747.61,63.15h12.78c7.45,0,13.92,5.51,14.69,12.93
			c0.05,0.54,0.08,1.08,0.08,1.63c0.01,3-0.86,5.94-2.5,8.46c-2.74,4.24-7.56,6.67-12.6,6.67h-7.19c-1.4,0-2.74-0.56-3.73-1.55
			c-0.99-0.99-1.54-2.33-1.54-3.73V63.15z M778.45,109.11c0,0.55-0.03,1.09-0.08,1.63c-0.77,7.41-7.23,12.92-14.67,12.92h-16.09
			V99.24c0-0.69,0.14-1.38,0.4-2.02c0.26-0.64,0.65-1.22,1.14-1.71c0.49-0.49,1.07-0.88,1.71-1.14c0.64-0.27,1.32-0.4,2.01-0.4
			h10.49c5.05,0,9.86,2.43,12.61,6.68c1.63,2.52,2.5,5.45,2.49,8.45V109.11z M841.11,122.34c-1.24-0.86-2.18-2.09-2.71-3.5
			L817.36,62h-13.79v1.15c1.36,0,2.67,0.54,3.64,1.51c0.97,0.96,1.51,2.27,1.52,3.64c0,0.61-0.11,1.21-0.32,1.78l-17.76,48.45
			c-0.55,1.51-1.55,2.81-2.87,3.73c-1.31,0.92-2.88,1.41-4.48,1.41v1.15h15.38v-1.15c-0.51,0-1.03-0.08-1.52-0.24
			c-0.49-0.16-0.95-0.39-1.37-0.69c-0.46-0.33-0.84-0.76-1.12-1.25c-0.28-0.49-0.45-1.04-0.49-1.61c-0.05-0.57,0.03-1.14,0.23-1.67
			c0.2-0.53,0.5-1.02,0.91-1.42l20.86-20.89c0.42-0.42,0.94-0.73,1.52-0.9c0.57-0.17,1.18-0.19,1.76-0.06
			c0.58,0.13,1.12,0.4,1.58,0.79c0.45,0.39,0.79,0.89,1,1.45l6.85,18.4c0.34,0.91,0.45,1.88,0.33,2.85
			c-0.12,0.96-0.47,1.88-1.02,2.67c-0.55,0.8-1.29,1.45-2.15,1.9c-0.86,0.45-1.81,0.68-2.78,0.68v1.15h22.09v-1.15
			C843.83,123.67,842.35,123.2,841.11,122.34z M817.25,93.18l-20.23,20.26c-1.23,1.24-3.27-0.07-2.67-1.71l16.42-44.81l7.69,20.68
			c0.35,0.95,0.43,1.98,0.21,2.97C818.46,91.56,817.96,92.47,817.25,93.18z M904.56,63.15h0.04V62h-15.51v1.15
			c0.94,0,1.88,0.19,2.75,0.55c0.87,0.36,1.66,0.89,2.33,1.56c0.67,0.67,1.2,1.46,1.56,2.33c0.36,0.87,0.55,1.81,0.55,2.75v47.52
			c0,0.53-0.21,1.05-0.59,1.42c-0.38,0.38-0.89,0.59-1.42,0.59c-0.36,0-0.71-0.1-1.01-0.28c-0.31-0.18-0.56-0.44-0.73-0.75
			L860.45,62h-16.74v1.15c1.9,0,3.73,0.76,5.08,2.11c1.35,1.35,2.1,3.18,2.1,5.09v46.19c0,1.89-0.75,3.7-2.08,5.04
			c-1.34,1.34-3.14,2.09-5.03,2.09h-0.07v1.15h15.41v-1.15c-1.89,0-3.7-0.75-5.03-2.09s-2.08-3.15-2.08-5.04V69.01
			c0-0.86,0.5-1.67,1.31-1.96c0.45-0.17,0.94-0.17,1.39,0c0.45,0.16,0.82,0.48,1.06,0.9l32.09,56.87h16.74v-1.15
			c-1.91,0-3.75-0.76-5.1-2.12c-1.35-1.36-2.11-3.19-2.11-5.11V70.34c0-1.91,0.76-3.74,2.1-5.09
			C900.83,63.9,902.66,63.15,904.56,63.15z M923.65,89.67L923.65,89.67l0.01-19.36c0-0.94,0.18-1.88,0.54-2.75
			c0.36-0.87,0.89-1.66,1.55-2.33c0.67-0.67,1.46-1.19,2.32-1.55c0.87-0.36,1.8-0.54,2.74-0.54V62h-20.84v1.15
			c1.9,0,3.72,0.76,5.06,2.1c1.34,1.34,2.1,3.17,2.1,5.07v46.13c0,1.91-0.76,3.74-2.11,5.09c-1.35,1.35-3.18,2.11-5.08,2.11v1.16
			h20.85v-1.15c-1.89,0-3.71-0.76-5.04-2.09c-1.34-1.34-2.09-3.16-2.09-5.05V99.09c0-0.89,0.26-1.76,0.74-2.5
			c0.48-0.75,1.17-1.33,1.98-1.69c0.81-0.36,1.71-0.48,2.59-0.34c0.88,0.14,1.69,0.53,2.35,1.13l26.5,23.98
			c0.24,0.21,0.43,0.46,0.57,0.75c0.13,0.29,0.2,0.6,0.2,0.92c0,0.3-0.05,0.6-0.17,0.88c-0.11,0.28-0.28,0.54-0.49,0.75
			c-0.21,0.21-0.47,0.38-0.74,0.5c-0.28,0.12-0.58,0.17-0.88,0.17v1.15h15.68v-1.15c-0.82,0-1.61-0.3-2.22-0.85l-32.43-29.35h-5.43
			c-1.62,0-2.33-2.07-1.04-3.07L965.04,64c0.64-0.55,1.45-0.86,2.29-0.86V62h-15.69v1.15c2.14,0,3.24,2.59,1.75,4.14l-26.9,23.68
			c-0.25,0.22-0.55,0.36-0.88,0.41c-0.33,0.05-0.66,0-0.96-0.13c-0.3-0.14-0.55-0.35-0.73-0.63C923.75,90.32,923.65,90,923.65,89.67
			z"/>
	</g>
</g>
<path class="st2" d="M11.37,0c5.09,0,6.07,1.67,7.38,4.91c2.21,5.52,24,54.34,24,54.34c7.6-1.01,14.11-3.58,20.11-7.9
	c7.2-5.18,12.74-12.17,18.59-19.55c6.02-7.63,12.27-15.5,20.68-21.54C111.73,3.36,122.87,0,136.07,0c1.67,0,3.22,0.83,4.13,2.23
	c0.91,1.4,1.06,3.14,0.37,4.66L75,154.08c-0.79,1.77-2.56,2.92-4.5,2.92s-3.71-1.15-4.5-2.92L0.43,6.89
	C-0.26,5.37-0.11,3.63,0.8,2.23C1.71,0.83,3.26,0,4.93,0H11.37z"/>
</svg>
