<svg width="26" height="26" viewBox="0 0 26 26" fill="none" xmlns="http://www.w3.org/2000/svg">
<path d="M25.7471 10.4539H24.7V10.4H13V15.6H20.347C19.2751 18.627 16.3949 20.8 13 20.8C8.69245 20.8 5.2 17.3075 5.2 13C5.2 8.69245 8.69245 5.2 13 5.2C14.9883 5.2 16.7973 5.9501 18.1747 7.17535L21.8517 3.4983C19.5299 1.33445 16.4242 0 13 0C5.82075 0 0 5.82075 0 13C0 20.1792 5.82075 26 13 26C20.1792 26 26 20.1792 26 13C26 12.1283 25.9103 11.2775 25.7471 10.4539Z" fill="#FBC02D"/>
<path d="M1.49902 6.94915L5.77017 10.0815C6.92587 7.2202 9.72477 5.2 13.0001 5.2C14.9885 5.2 16.7974 5.9501 18.1748 7.17535L21.8518 3.4983C19.53 1.33445 16.4243 0 13.0001 0C8.00682 0 3.67652 2.81905 1.49902 6.94915Z" fill="#E53935"/>
<path d="M13 26C16.3579 26 19.409 24.715 21.7159 22.6252L17.6924 19.2205C16.3872 20.2092 14.7648 20.8 13 20.8C9.61871 20.8 6.74766 18.644 5.66606 15.6351L1.42676 18.9014C3.57826 23.1114 7.94756 26 13 26Z" fill="#4CAF50"/>
<path d="M25.7471 10.454L25.7368 10.4H24.7H13V15.6H20.347C19.8322 17.0541 18.8968 18.3079 17.6904 19.2212L17.6923 19.2199L21.7158 22.6246C21.4311 22.8833 26 19.5 26 13C26 12.1284 25.9103 11.2775 25.7471 10.454Z" fill="#1565C0"/>
</svg>
