<svg width="291" height="86" viewBox="0 0 291 86" fill="none" xmlns="http://www.w3.org/2000/svg">
<path d="M280.053 86H10.7713C4.84707 86 0 81.1625 0 75.25V10.75C0 4.8375 4.84707 0 10.7713 0H280.053C285.977 0 290.824 4.8375 290.824 10.75V75.25C290.824 81.1625 285.977 86 280.053 86Z" fill="#100F0D"/>
<path d="M280.053 0H10.7713C4.84707 0 0 4.8375 0 10.75V75.25C0 81.1625 4.84707 86 10.7713 86H280.053C285.977 86 290.824 81.1625 290.824 75.25V10.75C290.824 4.8375 285.977 0 280.053 0ZM280.053 1.71914C285.042 1.71914 289.101 5.7706 289.101 10.75V75.25C289.101 80.2294 285.042 84.2808 280.053 84.2808H10.7713C5.78198 84.2808 1.72425 80.2294 1.72425 75.25V10.75C1.72425 5.7706 5.78198 1.71914 10.7713 1.71914H280.053Z" fill="#A2A2A1"/>
<path d="M102.042 21.06H95.7879V22.6054H100.473C100.349 23.8651 99.8439 24.856 98.9956 25.575C98.1474 26.2939 97.0669 26.6534 95.7879 26.6534C94.3807 26.6534 93.1892 26.1696 92.2163 25.1987C91.2605 24.2078 90.7758 22.9848 90.7758 21.5102C90.7758 20.032 91.2605 18.8091 92.2163 17.8216C93.1892 16.8472 94.3807 16.3635 95.7879 16.3635C96.508 16.3635 97.1914 16.4878 97.8243 16.76C98.4538 17.0287 98.9585 17.4049 99.3558 17.8921L100.544 16.7062C100.005 16.0947 99.3187 15.6245 98.4738 15.2818C97.6257 14.9426 96.7403 14.7813 95.7879 14.7813C93.9128 14.7813 92.3241 15.4263 91.0283 16.723C89.729 18.0196 89.0793 19.6188 89.0793 21.5102C89.0793 23.3981 89.729 25.0005 91.0283 26.2939C92.3241 27.5906 93.9128 28.239 95.7879 28.239C97.7502 28.239 99.3187 27.6073 100.527 26.3309C101.591 25.2692 102.133 23.8315 102.133 22.0309C102.133 21.7252 102.096 21.3992 102.042 21.06ZM104.534 15.0668V27.9501H112.067V26.3679H106.19V22.2829H111.491V20.734H106.19V16.6525H112.067V15.0668H104.534ZM122.682 16.6525V15.0668H113.813V16.6525H117.418V27.9501H119.074V16.6525H122.682ZM130.776 15.0668H129.12V27.9501H130.776V15.0668ZM141.747 16.6525V15.0668H132.877V16.6525H136.482V27.9501H138.138V16.6525H141.747ZM158.546 16.7397C157.267 15.4263 155.699 14.7813 153.824 14.7813C151.949 14.7813 150.381 15.4263 149.101 16.723C147.822 17.9996 147.189 19.602 147.189 21.5102C147.189 23.4148 147.822 25.0172 149.101 26.2939C150.381 27.5906 151.949 28.239 153.824 28.239C155.682 28.239 157.267 27.5906 158.546 26.2939C159.829 25.0172 160.458 23.4148 160.458 21.5102C160.458 19.6188 159.829 18.0196 158.546 16.7397ZM150.29 17.8216C151.246 16.8472 152.417 16.3635 153.824 16.3635C155.231 16.3635 156.402 16.8472 157.341 17.8216C158.294 18.7756 158.765 20.0153 158.765 21.5102C158.765 23.0016 158.294 24.2447 157.341 25.1987C156.402 26.1696 155.231 26.6534 153.824 26.6534C152.417 26.6534 151.246 26.1696 150.29 25.1987C149.354 24.2245 148.886 23.0016 148.886 21.5102C148.886 20.0153 149.354 18.7923 150.29 17.8216ZM164.464 19.9245L164.393 17.4419H164.464L171.028 27.9501H172.758V15.0668H171.098V22.6054L171.172 25.0878H171.098L164.824 15.0668H162.808V27.9501H164.464V19.9245Z" fill="#D9D9D9" stroke="white" stroke-width="0.266667" stroke-miterlimit="10"/>
<path d="M230.367 64.4999H234.387V37.6215H230.367V64.4999ZM266.574 47.3042L261.966 58.957H261.828L257.046 47.3042H252.716L259.889 63.5905L255.798 72.6506H259.991L271.044 47.3042H266.574ZM243.775 61.4471C242.461 61.4471 240.624 60.7894 240.624 59.1645C240.624 57.0899 242.912 56.2946 244.885 56.2946C246.651 56.2946 247.485 56.6743 248.558 57.1933C248.246 59.6835 246.098 61.4471 243.775 61.4471ZM244.262 46.7162C241.352 46.7162 238.338 47.9961 237.091 50.8315L240.658 52.318C241.421 50.8315 242.841 50.3477 244.331 50.3477C246.41 50.3477 248.523 51.5915 248.558 53.8054V54.0817C247.83 53.6667 246.27 53.0445 244.366 53.0445C240.518 53.0445 236.604 55.1532 236.604 59.0955C236.604 62.6918 239.758 65.0089 243.291 65.0089C245.992 65.0089 247.485 63.7986 248.418 62.3802H248.558V64.4563H252.44V54.1505C252.44 49.3785 248.868 46.7162 244.262 46.7162ZM219.419 50.5761H213.702V41.3631H219.419C222.425 41.3631 224.131 43.8457 224.131 45.9695C224.131 48.0524 222.425 50.5761 219.419 50.5761ZM219.316 37.6215H209.684V64.4999H213.702V54.3169H219.316C223.771 54.3169 228.151 51.0985 228.151 45.9695C228.151 40.8415 223.771 37.6215 219.316 37.6215ZM166.792 61.4521C164.015 61.4521 161.691 59.1307 161.691 55.9453C161.691 52.7229 164.015 50.3686 166.792 50.3686C169.534 50.3686 171.686 52.7229 171.686 55.9453C171.686 59.1307 169.534 61.4521 166.792 61.4521ZM171.408 48.8092H171.269C170.367 47.7357 168.631 46.7658 166.446 46.7658C161.864 46.7658 157.665 50.7844 157.665 55.9453C157.665 61.0709 161.864 65.0542 166.446 65.0542C168.631 65.0542 170.367 64.0841 171.269 62.9764H171.408V64.2916C171.408 67.7913 169.534 69.6607 166.515 69.6607C164.051 69.6607 162.524 67.8946 161.899 66.4055L158.394 67.8601C159.4 70.2839 162.071 73.2637 166.515 73.2637C171.235 73.2637 175.227 70.4922 175.227 63.7373V47.3201H171.408V48.8092ZM178.004 64.4999H182.028V37.6215H178.004V64.4999ZM187.963 55.6329C187.859 52.0996 190.706 50.2989 192.753 50.2989C194.35 50.2989 195.702 51.0959 196.155 52.2382L187.963 55.6329ZM200.457 52.5842C199.694 50.5417 197.369 46.7658 192.614 46.7658C187.893 46.7658 183.972 50.472 183.972 55.91C183.972 61.0365 187.859 65.0542 193.064 65.0542C197.263 65.0542 199.694 62.4918 200.701 61.0019L197.577 58.9232C196.535 60.4476 195.113 61.4521 193.064 61.4521C191.018 61.4521 189.559 60.5166 188.624 58.6807L200.873 53.6239L200.457 52.5842ZM102.852 49.5716V53.4508H112.153C111.876 55.6329 111.147 57.226 110.036 58.3346C108.682 59.685 106.565 61.1749 102.852 61.1749C97.1257 61.1749 92.6489 56.5683 92.6489 50.8532C92.6489 45.1381 97.1257 40.5308 102.852 40.5308C105.941 40.5308 108.197 41.7434 109.863 43.3022L112.605 40.5652C110.279 38.3488 107.191 36.6516 102.852 36.6516C95.0076 36.6516 88.4136 43.0251 88.4136 50.8532C88.4136 58.6807 95.0076 65.0542 102.852 65.0542C107.086 65.0542 110.279 63.6685 112.778 61.0709C115.346 58.5076 116.145 54.9055 116.145 51.9955C116.145 51.0959 116.075 50.2645 115.936 49.5716H102.852ZM126.719 61.4521C123.942 61.4521 121.547 59.166 121.547 55.91C121.547 52.6194 123.942 50.3686 126.719 50.3686C129.495 50.3686 131.89 52.6194 131.89 55.91C131.89 59.166 129.495 61.4521 126.719 61.4521ZM126.719 46.7658C121.651 46.7658 117.521 50.6105 117.521 55.91C117.521 61.1749 121.651 65.0542 126.719 65.0542C131.786 65.0542 135.916 61.1749 135.916 55.91C135.916 50.6105 131.786 46.7658 126.719 46.7658ZM146.781 61.4521C144.006 61.4521 141.61 59.166 141.61 55.91C141.61 52.6194 144.006 50.3686 146.781 50.3686C149.558 50.3686 151.952 52.6194 151.952 55.91C151.952 59.166 149.558 61.4521 146.781 61.4521ZM146.781 46.7658C141.715 46.7658 137.585 50.6105 137.585 55.91C137.585 61.1749 141.715 65.0542 146.781 65.0542C151.85 65.0542 155.979 61.1749 155.979 55.91C155.979 50.6105 151.85 46.7658 146.781 46.7658Z" fill="white"/>
<path d="M44.6301 41.762L21.6949 66.0571C21.6957 66.0621 21.6974 66.0663 21.6983 66.0713C22.4017 68.7093 24.8159 70.6519 27.6813 70.6519C28.8267 70.6519 29.9021 70.3428 30.8244 69.8002L30.8976 69.7574L56.7142 54.8897L44.6301 41.762Z" fill="#EB3131"/>
<path d="M67.8338 37.6251L67.8119 37.61L56.6662 31.1615L44.1092 42.3131L56.7099 54.8872L67.7968 48.5028C69.7406 47.4555 71.06 45.4104 71.06 43.0521C71.06 40.7108 69.7582 38.6758 67.8338 37.6251Z" fill="#F6B60B"/>
<path d="M21.694 19.9463C21.5561 20.4537 21.4837 20.9851 21.4837 21.537V64.4674C21.4837 65.0182 21.5553 65.5515 21.6949 66.0571L45.4195 42.3836L21.694 19.9463Z" fill="#5778C5"/>
<path d="M44.7992 43.0017L56.6705 31.1574L30.8832 16.2359C29.9459 15.6756 28.8519 15.3523 27.6813 15.3523C24.8159 15.3523 22.3984 17.2982 21.6949 19.9395C21.694 19.9421 21.694 19.9438 21.694 19.9462L44.7992 43.0017Z" fill="#3BAD49"/>
</svg>
