<svg width="43" height="43" viewBox="0 0 43 43" fill="none" xmlns="http://www.w3.org/2000/svg">
<path fill-rule="evenodd" clip-rule="evenodd" d="M12.6197 0.263867C9.11978 0.421784 6.08623 1.27747 3.6367 3.71666C1.17861 6.16866 0.333553 9.21423 0.175242 12.6778C0.076833 14.8395 -0.498614 31.1712 1.17006 35.4542C2.29534 38.3437 4.51163 40.5654 7.42753 41.6943C8.78814 42.2235 10.3413 42.5817 12.6197 42.6863C31.6704 43.5485 38.7323 43.0791 41.7102 35.4542C42.2386 34.097 42.6023 32.5452 42.7029 30.2724C43.5736 11.1729 42.5617 7.03294 39.2415 3.71666C36.608 1.08967 33.5102 -0.698577 12.6197 0.263867ZM12.7951 38.8451C10.7093 38.7512 9.57757 38.4036 8.82239 38.1113C6.92267 37.3729 5.49574 35.9519 4.76195 34.0633C3.4912 30.8089 3.91266 15.3521 4.02604 12.851C4.13729 10.4011 4.63361 8.1621 6.36218 6.43355C8.5015 4.29951 11.2655 3.25363 30.0851 4.10299C32.5411 4.21395 34.7853 4.70925 36.5181 6.43355C38.6574 8.56757 39.7185 11.3528 38.8542 30.1003C38.7601 32.1809 38.4114 33.3099 38.1183 34.0633C36.1822 39.0249 31.7281 39.7136 12.7951 38.8451ZM30.2927 10.0827C30.2927 11.4954 31.4415 12.6442 32.8599 12.6442C34.2783 12.6442 35.4292 11.4954 35.4292 10.0827C35.4292 8.66994 34.2783 7.52219 32.8599 7.52219C31.4415 7.52219 30.2927 8.66994 30.2927 10.0827ZM10.4547 21.474C10.4547 27.5261 15.373 32.4329 21.4401 32.4329C27.5073 32.4329 32.4256 27.5261 32.4256 21.474C32.4256 15.4219 27.5073 10.5183 21.4401 10.5183C15.373 10.5183 10.4547 15.4219 10.4547 21.474ZM14.3098 21.474C14.3098 17.5475 17.5016 14.3616 21.4401 14.3616C25.3786 14.3616 28.5705 17.5475 28.5705 21.474C28.5705 25.4028 25.3786 28.5896 21.4401 28.5896C17.5016 28.5896 14.3098 25.4028 14.3098 21.474Z" fill="white"/>
</svg>
