<svg width="144" height="26" viewBox="0 0 144 26" fill="none" xmlns="http://www.w3.org/2000/svg">
<path d="M14.3041 0.676868C14.1192 0.265003 13.7098 0 13.2583 0C12.8069 0 12.3975 0.265003 12.2126 0.676868L8.98376 7.87101L1.14396 8.71873C0.695122 8.76726 0.316585 9.07474 0.177079 9.5041C0.0375729 9.93346 0.163089 10.4047 0.497679 10.7078L6.34193 16.0017L4.72553 23.7198C4.63299 24.1616 4.80845 24.6167 5.17368 24.882C5.53891 25.1474 6.02589 25.1736 6.41753 24.9491L13.2583 21.0268L20.0992 24.9491C20.4908 25.1736 20.9778 25.1474 21.343 24.882C21.7082 24.6167 21.8837 24.1616 21.7911 23.7198L20.1747 16.0017L26.019 10.7078C26.3536 10.4047 26.4791 9.93346 26.3396 9.5041C26.2001 9.07474 25.8216 8.76726 25.3728 8.71873L17.5329 7.87101L14.3041 0.676868Z" fill="url(#paint0_linear_14_85)"/>
<path d="M43.7538 0.676868C43.5689 0.265003 43.1595 0 42.708 0C42.2566 0 41.8472 0.265003 41.6623 0.676868L38.4335 7.87101L30.5937 8.71873C30.1448 8.76726 29.7663 9.07474 29.6268 9.5041C29.4873 9.93346 29.6128 10.4047 29.9474 10.7078L35.7916 16.0017L34.1752 23.7198C34.0827 24.1616 34.2581 24.6167 34.6234 24.882C34.9886 25.1474 35.4756 25.1736 35.8672 24.9491L42.708 21.0268L49.5489 24.9491C49.9405 25.1736 50.4274 25.1474 50.7927 24.882C51.1579 24.6167 51.3334 24.1616 51.2408 23.7198L49.6244 16.0017L55.4687 10.7078C55.8033 10.4047 55.9288 9.93346 55.7893 9.5041C55.6498 9.07474 55.2713 8.76726 54.8225 8.71873L46.9826 7.87101L43.7538 0.676868Z" fill="url(#paint1_linear_14_85)"/>
<path d="M73.1577 0.676868C72.9729 0.265003 72.5634 0 72.112 0C71.6606 0 71.2512 0.265003 71.0663 0.676868L67.8374 7.87101L59.9976 8.71873C59.5488 8.76726 59.1702 9.07474 59.0307 9.5041C58.8912 9.93346 59.0167 10.4047 59.3513 10.7078L65.1956 16.0017L63.5792 23.7198C63.4866 24.1616 63.6621 24.6167 64.0273 24.882C64.3926 25.1474 64.8795 25.1736 65.2712 24.9491L72.112 21.0268L78.9528 24.9491C79.3445 25.1736 79.8314 25.1474 80.1967 24.882C80.5619 24.6167 80.7374 24.1616 80.6448 23.7198L79.0284 16.0017L84.8726 10.7078C85.2072 10.4047 85.3327 9.93346 85.1932 9.5041C85.0537 9.07474 84.6753 8.76726 84.2264 8.71873L76.3866 7.87101L73.1577 0.676868Z" fill="url(#paint2_linear_14_85)"/>
<path d="M102.562 0.676868C102.377 0.265003 101.967 0 101.516 0C101.065 0 100.655 0.265003 100.47 0.676868L97.2414 7.87101L89.4016 8.71873C88.9527 8.76726 88.5742 9.07474 88.4347 9.5041C88.2952 9.93346 88.4207 10.4047 88.7553 10.7078L94.5995 16.0017L92.9831 23.7198C92.8906 24.1616 93.0661 24.6167 93.4313 24.882C93.7965 25.1474 94.2835 25.1736 94.6751 24.9491L101.516 21.0268L108.357 24.9491C108.748 25.1736 109.235 25.1474 109.601 24.882C109.966 24.6167 110.141 24.1616 110.049 23.7198L108.432 16.0017L114.277 10.7078C114.611 10.4047 114.737 9.93346 114.597 9.5041C114.458 9.07474 114.079 8.76726 113.63 8.71873L105.791 7.87101L102.562 0.676868Z" fill="url(#paint3_linear_14_85)"/>
<path fill-rule="evenodd" clip-rule="evenodd" d="M129.343 1.0023C129.943 -0.334103 131.84 -0.3341 132.44 1.0023L135.369 7.52998L142.483 8.29917C143.939 8.45664 144.526 10.2611 143.44 11.2445L138.137 16.048L139.604 23.0511C139.904 24.4849 138.369 25.6001 137.098 24.8715L130.891 21.3125L124.684 24.8715C123.413 25.6001 121.878 24.4849 122.179 23.0511L123.645 16.048L118.342 11.2445C117.257 10.2611 117.843 8.45664 119.299 8.29917L126.413 7.52998L129.343 1.0023ZM130.891 3.12434L128.357 8.76989C128.111 9.3198 127.591 9.69756 126.991 9.76236L120.839 10.4276L125.425 14.582C125.872 14.9866 126.071 15.5978 125.947 16.1879L124.679 22.2445L130.047 19.1665C130.57 18.8667 131.213 18.8667 131.735 19.1665L137.104 22.2445L135.835 16.1879C135.712 15.5978 135.91 14.9867 136.357 14.582L140.943 10.4276L134.791 9.76236C134.192 9.69756 133.672 9.3198 133.425 8.76989L130.891 3.12434Z" fill="url(#paint4_linear_14_85)"/>
<defs>
<linearGradient id="paint0_linear_14_85" x1="0.579326" y1="-35.8585" x2="46.2072" y2="-30.235" gradientUnits="userSpaceOnUse">
<stop stop-color="#FFE661"/>
<stop offset="1" stop-color="#E7B60A"/>
</linearGradient>
<linearGradient id="paint1_linear_14_85" x1="30.029" y1="-35.8585" x2="75.6569" y2="-30.235" gradientUnits="userSpaceOnUse">
<stop stop-color="#FFE661"/>
<stop offset="1" stop-color="#E7B60A"/>
</linearGradient>
<linearGradient id="paint2_linear_14_85" x1="59.433" y1="-35.8585" x2="105.061" y2="-30.235" gradientUnits="userSpaceOnUse">
<stop stop-color="#FFE661"/>
<stop offset="1" stop-color="#E7B60A"/>
</linearGradient>
<linearGradient id="paint3_linear_14_85" x1="88.8369" y1="-35.8585" x2="134.465" y2="-30.235" gradientUnits="userSpaceOnUse">
<stop stop-color="#FFE661"/>
<stop offset="1" stop-color="#E7B60A"/>
</linearGradient>
<linearGradient id="paint4_linear_14_85" x1="118.24" y1="-35.8585" x2="163.771" y2="-30.2591" gradientUnits="userSpaceOnUse">
<stop stop-color="#FFE661"/>
<stop offset="1" stop-color="#E7B60A"/>
</linearGradient>
</defs>
</svg>
