<?xml version="1.0" encoding="utf-8"?>

<!DOCTYPE svg PUBLIC "-//W3C//DTD SVG 1.1//EN" "http://www.w3.org/Graphics/SVG/1.1/DTD/svg11.dtd">
<!-- Uploaded to: SVG Repo, www.svgrepo.com, Generator: SVG Repo Mixer Tools -->
<svg version="1.1" id="_x32_" xmlns="http://www.w3.org/2000/svg" xmlns:xlink="http://www.w3.org/1999/xlink" 
	 width="800px" height="800px" viewBox="0 0 512 512"  xml:space="preserve">
<style type="text/css">
<![CDATA[
	.st0{fill:#000000;}
]]>
</style>
<g>
	<path class="st0" d="M409.674,115.813c-6.203,0-11.234,5.047-11.234,11.25c0,6.219,5.031,11.25,11.234,11.25
		c6.219,0,11.25-5.031,11.25-11.25C420.924,120.859,415.893,115.813,409.674,115.813z"/>
	<path class="st0" d="M207.237,127.063c0-6.203-5.047-11.25-11.25-11.25s-11.234,5.047-11.234,11.25
		c0,6.219,5.031,11.25,11.234,11.25S207.237,133.281,207.237,127.063z"/>
	<path class="st0" d="M174.237,154.406c-12.625-4.141-26.234,2.75-30.359,15.391l-44.203,94.766H71.518V95.625l-27.234,18.156
		c-5.484,3.656-9.625,8.984-11.797,15.188L3.409,245.75c-5.469,15.625-4.328,32.813,3.188,47.594l48.141,94.625
		c5.813,11.438,7.063,24.656,3.5,36.969l-20.781,71.188h108.938c0,0,19.578-117.094,27.375-149.813
		c10.703-44.797,13.969-69.875,3.641-108.219l12.234-53.344C193.784,172.125,186.893,158.531,174.237,154.406z"/>
	<path class="st0" d="M93.331,15.875v215.844l26.703-57.234c-0.172-0.031-0.344-0.109-0.531-0.141V79.781
		c18.781-3.188,33.406-18.563,35.313-37.75h108.719c-24.563,16.656-41.156,48.438-41.156,85.031s16.594,68.391,41.125,85.063h-60
		l-6,26.156h314.5V15.875H93.331z M334.862,154.5c-1.781,3.391-4.281,6.188-7.391,8.484c-3.156,2.297-6.906,4.016-11.266,5.141
		c-1.906,0.484-3.922,0.813-5.953,1.094v12.719h-15.172v-12.469c-4.344-0.375-8.453-1.031-12.344-2.125
		c-5.938-1.609-13.734-8.156-13.734-8.156c-0.656-0.406-1.094-1.094-1.203-1.844c-0.078-0.75,0.188-1.563,0.734-2.063l7.609-7.625
		c0.797-0.813,2.078-0.969,3.063-0.359c0,0,5.703,4.953,10.016,6.125c4.297,1.141,8.578,1.75,12.859,1.75
		c5.375,0,9.844-0.938,13.359-2.859c3.547-1.906,5.297-4.844,5.297-8.906c0-2.922-0.875-5.219-2.609-6.906
		c-1.75-1.656-4.672-2.719-8.828-3.219l-13.625-1.156c-8.063-0.781-14.297-3-18.656-6.703c-4.375-3.703-6.563-9.313-6.563-16.828
		c0-4.141,0.844-7.813,2.531-11.094c1.672-3.25,3.969-5.984,6.875-8.234c2.938-2.234,6.328-3.922,10.203-5.047
		c1.609-0.453,3.297-0.781,5.016-1.063V72.219h15.172v10.75c3.547,0.344,6.922,0.906,10.047,1.766
		c5.328,1.453,10.938,5.828,10.938,5.828c0.688,0.344,1.172,1.031,1.297,1.813c0.109,0.781-0.141,1.578-0.703,2.141l-7.125,7.234
		c-0.766,0.766-1.938,0.969-2.906,0.469c0,0-4.219-3-7.875-3.969c-3.641-0.938-7.469-1.406-11.516-1.406
		c-5.266,0-9.172,1-11.688,3.031c-2.516,2-3.781,4.625-3.781,7.875c0,2.938,0.891,5.156,2.703,6.75c1.781,1.563,4.813,2.578,9.063,3
		l11.938,1.031c8.875,0.781,15.547,3.125,20.094,7.063c4.547,3.906,6.813,9.625,6.813,17.125
		C337.549,147.234,336.659,151.141,334.862,154.5z M485.83,174.344c-18.781,3.188-33.422,18.594-35.344,37.781H341.831
		c24.547-16.672,41.125-48.469,41.125-85.063s-16.594-68.375-41.141-85.031h108.671c1.906,19.188,16.547,34.563,35.344,37.719
		V174.344z"/>
</g>
</svg>