<?xml version="1.0" encoding="utf-8"?>
<!-- Generator: Adobe Illustrator 24.3.0, SVG Export Plug-In . SVG Version: 6.00 Build 0)  -->
<svg version="1.1" id="Layer_1" xmlns="http://www.w3.org/2000/svg" xmlns:xlink="http://www.w3.org/1999/xlink" x="0px" y="0px"
	 viewBox="0 0 800 800" style="enable-background:new 0 0 800 800;" xml:space="preserve">
<style type="text/css">
	.st0{fill-rule:evenodd;clip-rule:evenodd;}
</style>
<g id="Page-1">
	<g id="Mask" transform="translate(64.000000, 64.000000)">
		<path class="st0" d="M502.67,302.67C576.33,302.67,636,362.33,636,436l0,0v200H36V502.67C36,429,95.67,369.33,169.33,369.33l0,0
			h118c23-40,66-66.67,115.33-66.67l0,0H502.67z M502.67,369.33h-100c-36.67,0-66.67,30-66.67,66.67l0,0v133.33h233.33V436
			C569.33,399.33,539.33,369.33,502.67,369.33L502.67,369.33z M269.33,436h-100c-36.67,0-66.67,30-66.67,66.67l0,0v66.67h166.67V436
			z M202.67,136c55.13,0,100,44.87,100,100s-44.87,100-100,100s-100-44.87-100-100S147.53,136,202.67,136z M202.67,198.5
			c-20.67,0-37.5,16.8-37.5,37.5s16.83,37.5,37.5,37.5s37.5-16.8,37.5-37.5S223.33,198.5,202.67,198.5z M452.67,36
			C517,36,569.33,88.33,569.33,152.67S517,269.33,452.67,269.33S336,217,336,152.67S388.33,36,452.67,36z M452.67,102.67
			c-27.57,0-50,22.43-50,50s22.43,50,50,50c27.57,0,50-22.43,50-50S480.23,102.67,452.67,102.67z"/>
	</g>
	<rect x="453.68" y="155.02" class="st0" width="129.92" height="124.72"/>
	<rect x="223.29" y="250.87" class="st0" width="94.12" height="91.81"/>
	<rect x="385.56" y="425.3" class="st0" width="275.63" height="224.88"/>
	<rect x="157.18" y="487.43" class="st0" width="187.25" height="176.75"/>
</g>
</svg>
