<?xml version="1.0" encoding="utf-8"?><!-- Uploaded to: SVG Repo, www.svgrepo.com, Generator: SVG Repo Mixer Tools -->
<svg width="800px" height="800px" viewBox="0 0 24 24" fill="none" xmlns="http://www.w3.org/2000/svg">
<path d="M16.3027 15.3365H6.68V20.1818C6.68 20.6337 6.30392 21 5.84 21C5.37608 21 5 20.6337 5 20.1818V3.81818C5 3.36631 5.37608 3 5.84 3H16.3027C17.4037 3 18.2506 3.65926 18.6739 4.48207C19.0965 5.30334 19.1414 6.35681 18.6123 7.28021L18.1096 8.15756C17.757 8.77312 17.757 9.56335 18.1096 10.1789L18.6123 11.0563C19.1414 11.9797 19.0965 13.0331 18.6739 13.8544C18.2506 14.6772 17.4037 15.3365 16.3027 15.3365Z" fill="#363853"/>
</svg>